<svg xmlns="http://www.w3.org/2000/svg" width="32" height="32" viewBox="0 0 32 32">
  <!-- Blue circle background -->
  <circle cx="16" cy="16" r="15" fill="#3B82F6"/>
  <!-- ECG/Pulse line - the core health monitoring symbol -->
  <polyline points="4,17 9,17 11,12 13,22 15,10 17,20 19,14 21,17 28,17"
    fill="none" stroke="white" stroke-width="2" stroke-linecap="round" stroke-linejoin="round"/>
  <!-- Small heart above the pulse -->
  <path d="M16 9.5 C16 9.5 14.5 7 12.5 7 C10.5 7 9 8.5 9 10.2 C9 13 16 15.5 16 15.5 C16 15.5 23 13 23 10.2 C23 8.5 21.5 7 19.5 7 C17.5 7 16 9.5 16 9.5Z"
    fill="white" opacity="0.3"/>
</svg>
